<svg width="80" height="80" fill="none" xmlns="http://www.w3.org/2000/svg"><path fill-rule="evenodd" clip-rule="evenodd" d="M40 0C10 0 0 10 0 40s10 40 40 40 40-10 40-40S70 0 40 0zm-.052 27.784c-.671-.095-1.997-.779-1.928-2.755.045-1.295.82-1.635 1.548-1.954.66-.29 1.28-.562 1.28-1.513 0-1.96-.267-2.362-.533-2.764a2.282 2.282 0 01-.367-.798l.099.041c.926.388 2.61 1.093 2.857 3.521.151 1.48-.91 1.926-1.871 2.33-.676.285-1.304.55-1.428 1.137-.24 1.14.729 2.312 1.243 2.755h-.9zm7.435 1.151c-.75-.075-2.231-.618-2.155-2.187.05-1.029.917-1.3 1.73-1.553.738-.23 1.43-.445 1.43-1.2 0-1.557-.297-1.877-.595-2.196-.15-.16-.298-.32-.41-.634l.11.033c1.036.308 2.917.868 3.194 2.796.17 1.175-1.016 1.53-2.091 1.851-.756.226-1.458.436-1.596.903-.268.905.814 1.835 1.389 2.187h-1.006zm-17.436-2.187c-.076 1.569 1.405 2.112 2.155 2.187h1.006c-.575-.352-1.657-1.282-1.389-2.187.138-.468.84-.677 1.596-.903 1.075-.321 2.26-.676 2.091-1.85-.277-1.929-2.158-2.489-3.193-2.797l-.11-.033c.11.315.26.474.409.634.298.32.596.639.596 2.195 0 .756-.693.971-1.43 1.201-.814.254-1.68.524-1.73 1.553zm-.435 26.936a2.16 2.16 0 00-2.163 2.158A2.16 2.16 0 0029.512 58h21.336a2.16 2.16 0 002.162-2.158 2.16 2.16 0 00-2.162-2.158H29.512zm4.774-1.727c-.504 0-.998-.16-1.381-.486-3.727-3.177-6.365-8.783-6.898-15.333-.103-1.271.94-2.31 2.219-2.31h23.599c3.375-.005 6.304.008 6.873.069 1.468.155 4.404 1.027 4.404 3.268 0 2.242-2.936 6.953-4.404 9.028-1.32 1.708-4.882 2.926-9.096 2.52a16.104 16.104 0 01-2.534 2.758 2.118 2.118 0 01-1.381.486h-11.4zm16.483-5.043c2.512.208 4.753-.295 6.194-1.876 1.068-1.525 3.203-4.986 3.203-6.633 0-2.402-1.468-2.402-3.203-2.402h-2.99c-.001.045-.004.09-.007.135-.332 4.077-1.48 7.789-3.197 10.776z" fill="#fff"/></svg>