<svg width="80" height="80" fill="none" xmlns="http://www.w3.org/2000/svg"><path fill-rule="evenodd" clip-rule="evenodd" d="M0 40C0 10 10 0 40 0s40 10 40 40-10 40-40 40S0 70 0 40zm43.145-7.651L28.44 28s-2.23.246-5.113 2.997c.638.28 1.09.975 1.09 1.789 0 1.06-.77 1.921-1.718 1.921-.662 0-1.236-.419-1.523-1.033C20 35.716 20 37.334 20 37.334h40l-14.734-4.358c-.075.6-.536 1.063-1.094 1.063-.61 0-1.105-.553-1.105-1.235a1.347 1.347 0 01.078-.455zm7.077 6.762a.889.889 0 11-1.659-.444H20v5.822a2.222 2.222 0 110 4.355v2.712h3.111a.889.889 0 111.778 0h9.349a1.555 1.555 0 113.08 0h14.238a.889.889 0 111.778 0h5.038A1.556 1.556 0 0160 49.35v-5.98a2.223 2.223 0 010-4.074v-.63h-9.897c.076.131.12.283.12.445zm3.111 5.556a1.556 1.556 0 11-3.111 0 1.556 1.556 0 013.111 0zm-18-1.556a1.555 1.555 0 100-3.11 1.555 1.555 0 000 3.11zM28 48.89a2.222 2.222 0 100-4.444 2.222 2.222 0 000 4.444zm29.334-.445a.889.889 0 100-1.777.889.889 0 000 1.777zm-12.445-2.222a2.667 2.667 0 11-5.334 0 2.667 2.667 0 015.334 0zm-21.333-4.444a.889.889 0 100-1.778.889.889 0 000 1.778z" fill="#fff"/></svg>