<svg width="80" height="80" fill="none" xmlns="http://www.w3.org/2000/svg"><path fill-rule="evenodd" clip-rule="evenodd" d="M40 0C10 0 0 10 0 40s10 40 40 40 40-10 40-40S70 0 40 0zm13.887 20c-.73 0-.22 2.201.277 3.307-2.153-.078-6.125.913-8.158 5.559 1.05.328 3.546.67 5.122-.591-.2.854-.463 2.571-.293 3.966l.014.103.012.081.01.06.007.046a5.074 5.074 0 00.08.372 3.506 3.506 0 00.088.288l.027.07c.017.047.036.092.055.136 1.051-.394 3.507-1.891 4.926-4.728.043.207.108.452.195.721.015.044.028.086.044.13l.01.031.028.076.017.05.02.055.006.014.033.089.039.098c.511 1.28 1.467 2.808 2.957 3.267 2.024-6.794-1.543-9.246-4.073-9.758l-.027-.04-.037-.053c-1.103-1.576-.197-2.495.394-2.758-.197-.394-1.182-.591-1.773-.591zM50.34 48.173c4.61-5.288 6.794-10.762 7.387-15.01-.558-.459-1-1.027-1.341-1.586-.211-.346-.392-.701-.544-1.047-1.508 2.082-3.452 3.236-4.437 3.605l-.695.26-.302-.678c-.393-.885-.449-2.041-.402-3.032.017-.343.046-.68.084-1a6.5 6.5 0 01-1.694.269 8.588 8.588 0 01-1.82-.14c-.235.34-.452.675-.666 1.008l-.016.025c-1.603 2.49-3.107 4.823-11.512 7.672C29.588 39.703 20 43.525 20 49.355c0 7.29 4.531 10.442 12.412 9.654 7.88-.788 11.23-3.152 17.928-10.836zm-26.559-1.919c-1.679 2.25-.332 2.942 1.498 1.882.816-.472 1.469-1.136 2.267-1.946 1.44-1.462 3.351-3.402 7.535-5.564 6.505-3.36-9.62 3.379-11.3 5.628z" fill="#fff"/></svg>