<svg width="80" height="80" fill="none" xmlns="http://www.w3.org/2000/svg"><path fill-rule="evenodd" clip-rule="evenodd" d="M40 0C10 0 0 10 0 40s10 40 40 40 40-10 40-40S70 0 40 0zM22.046 34.901C23.562 32.372 30.235 26 40.46 26c10.226 0 16.898 6.372 18.414 8.901-9.929 1.113-29.065 1.335-36.828 0zm4.724 17.675c-3.91-.336-5.052-4.763-5.133-6.934 9.195 2.376 28.306 1.944 36.42 0-.082 2.171-1.223 6.598-5.134 6.934-1.168.1-2.204.201-3.181.296-3.109.302-5.618.545-9.895.545-4.278 0-6.787-.243-9.896-.545-.976-.095-2.012-.195-3.181-.296zm-5.13-15.669c-.867-.131-1.64.803-1.64 2.006v2.413c0 .983.519 1.813 1.225 1.935 2.98.515 10.936 1.75 18.775 1.75 7.84 0 15.796-1.235 18.775-1.75.706-.122 1.225-.952 1.225-1.935v-2.413c0-1.203-.773-2.137-1.64-2.005-.502.076-1.423.172-2.365.27-.102.01-.69.088-1.272.164-.565.074-1.124.148-1.223.158L51 41.326s-2.5-3.326-6.948-3.3c-2.89.017-3.225.047-3.436.066-.114.01-.193.017-.616.017-9.189 0-15.544-.773-18.36-1.202z" fill="#fff"/></svg>