<svg width="80" height="80" fill="none" xmlns="http://www.w3.org/2000/svg"><path fill-rule="evenodd" clip-rule="evenodd" d="M40 80c22.091 0 40-17.909 40-40S62.091 0 40 0 0 17.909 0 40s17.909 40 40 40zm-.48-53.107A8.929 8.929 0 1126.893 39.52 8.929 8.929 0 0139.52 26.893zm4.42 14.012c3.71-5.16 3.246-12.396-1.395-17.037-5.157-5.157-13.52-5.157-18.677 0-5.157 5.158-5.157 13.52 0 18.677 4.641 4.64 11.876 5.106 17.037 1.395l14.596 15.638c.835.835 2.716.31 3.55-.526.836-.835 1.362-2.716.527-3.551L43.94 40.905z" fill="#fff"/></svg>