<svg width="80" height="80" fill="none" xmlns="http://www.w3.org/2000/svg"><path fill-rule="evenodd" clip-rule="evenodd" d="M0 40C0 10 10 0 40 0s40 10 40 40-10 40-40 40S0 70 0 40zm60-4.148c0 7.65-6.202 13.851-13.852 13.851s-13.851-6.201-13.851-13.851c0-7.65 6.201-13.852 13.851-13.852C53.798 22 60 28.202 60 35.852zm-13.074-10.74l.451.361c.395.316.56.84.417 1.325l-.22.741c-.155.53-.641.893-1.193.893h-.465a1.245 1.245 0 01-1.194-.893l-.219-.741a1.245 1.245 0 01.416-1.325l.452-.36a1.245 1.245 0 011.555 0zm10.175 9.636a1.246 1.246 0 00-.285-1.351l-.482-.46a1.205 1.205 0 00-1.506-.114l-.43.286c-.446.296-.67.838-.562 1.354l.163.773c.109.516.528.894 1.046.943l.5.048c.56.053 1.1-.29 1.308-.833l.248-.646zm-17.127 5.595c.212-.542.728-.88 1.262-.825l.582.06c.499.05.902.433 1.01.958l.144.705a1.383 1.383 0 01-.58 1.422l-.464.304a1.12 1.12 0 01-1.412-.12l-.493-.478c-.367-.355-.479-.928-.28-1.435l.23-.591zm11.34.186c-.4-.041-.787.212-.946.618l-.076.195c-.149.38-.065.81.21 1.077l.186.179a.84.84 0 001.058.09l.137-.09c.343-.223.519-.655.435-1.066l-.054-.265c-.08-.393-.383-.68-.758-.719l-.192-.02zM38.778 32.12c.159-.406.546-.66.946-.618l.192.02c.374.038.677.325.758.718l.054.265c.084.41-.093.843-.435 1.067l-.137.09a.84.84 0 01-1.059-.091l-.185-.18c-.275-.265-.36-.696-.21-1.076l.076-.195zm9.427.627c-.4-.041-.788.212-.947.618l-.076.195c-.149.38-.064.81.21 1.077l.186.18a.84.84 0 001.058.09l.138-.09c.342-.224.518-.656.434-1.067l-.054-.264c-.08-.394-.383-.681-.757-.72l-.192-.02zm-22.321.957a13.812 13.812 0 014.82-2.163 16.044 16.044 0 00-.527 5.693l-.187-.552a1.245 1.245 0 00-1.103-.844l-.576-.035a1.245 1.245 0 00-1.273.894l-.161.555a1.245 1.245 0 00.422 1.323l.605.48c.432.344 1.039.361 1.49.044l.38-.268c.26-.182.432-.45.498-.744 1.077 7.715 7.644 13.671 15.626 13.793a13.797 13.797 0 01-4.076 4.484c-6.258 4.401-14.898 2.896-19.299-3.361s-2.896-14.898 3.361-19.299zm5.502 18.556c-.138-.566.09-1.139.558-1.401l.51-.286c.438-.246.988-.165 1.378.203l.523.494c.406.383.546.99.344 1.496l-.205.516a1.12 1.12 0 01-1.224.713l-.678-.106c-.504-.08-.926-.484-1.055-1.013l-.151-.616zm-5.709-6.038c-.103-.424.068-.854.419-1.05l.168-.095c.328-.184.74-.123 1.033.153l.197.185c.305.288.41.742.258 1.123l-.06.152a.84.84 0 01-.919.535l-.254-.04c-.378-.06-.695-.363-.792-.76l-.05-.203z" fill="#fff"/></svg>