<svg width="80" height="80" fill="none" xmlns="http://www.w3.org/2000/svg"><path fill-rule="evenodd" clip-rule="evenodd" d="M40 0C10 0 0 10 0 40s10 40 40 40 40-10 40-40S70 0 40 0zm0 22L20 33.429l5.853 3.344-4.38 2.502 4.806 2.747L20 45.61l20 11.428L60 45.61l-6.28-3.588 4.807-2.746-4.38-2.503L60 33.429 40 22zM27.326 37.615l-2.907 1.66 3.333 1.905 2.907-1.66-3.333-1.905zm4.806 2.746l-2.907 1.66L40 48.18l10.775-6.157-2.907-1.661L40 44.857l-7.868-4.496zm17.21-.842l2.906 1.661 3.333-1.904-2.907-1.661-3.333 1.904zm-21.59 3.345L40 49.862l12.248-6.998 4.806 2.746L40 55.355 22.946 45.61l4.806-2.746z" fill="#fff"/></svg>