<svg width="80" height="80" fill="none" xmlns="http://www.w3.org/2000/svg"><path fill-rule="evenodd" clip-rule="evenodd" d="M40 0C10 0 0 10 0 40s10 40 40 40 40-10 40-40S70 0 40 0zm1.001 40.343c-1.873-3.266-4.433-5.62-6.75-7.194a82.35 82.35 0 014.952-1.926c3.348 1.357 8.204 3.695 10.924 6.279-1.736-3.287-4.665-5.78-7.248-7.424a30.62 30.62 0 012.788-.62 20.543 20.543 0 012.897-.453c2.327 1.218 5.395 3.139 7.16 5.266-.877-2.148-2.209-3.91-3.573-5.271 2.956.276 5.876 1.342 7.188 4.02 2.986 6.094-4.884 10.034-8.888 11.816-6.97 3.342-11.746 4.448-16.748 5.608-1.456.337-2.931.679-4.485 1.081-6.893 1.786-10.107-3.322-9.006-7.743.405-1.627 1.44-3.069 2.616-4.237 2.812.836 7.496 2.66 10.372 5.292-2.244-3.683-5.302-6.055-7.729-7.401.484-.31.926-.557 1.288-.734a86.578 86.578 0 014.018-2.001c3.11 1.101 7.5 3.066 10.224 5.642z" fill="#fff"/></svg>