<svg width="80" height="80" fill="none" xmlns="http://www.w3.org/2000/svg"><path fill-rule="evenodd" clip-rule="evenodd" d="M0 40C0 10 10 0 40 0s40 10 40 40-10 40-40 40S0 70 0 40zm30.839-18a2 2 0 012-2h14.548a2 2 0 012 2v.839a2 2 0 01-2 2H32.84a2 2 0 01-2-2V22zm23.387 11.705v1.134H33.258v8.387h20.968V55a5 5 0 01-5 5H31a5 5 0 01-5-5V33.705c0-1.536.774-2.968 2.058-3.809l1.443-.945c.384-.251.615-.68.615-1.138 0-.752.61-1.361 1.361-1.361h17.271c.752 0 1.361.609 1.361 1.36 0 .46.232.888.616 1.14l1.443.944a4.552 4.552 0 012.058 3.809z" fill="#fff"/></svg>