<svg width="80" height="80" fill="none" xmlns="http://www.w3.org/2000/svg"><path fill-rule="evenodd" clip-rule="evenodd" d="M40 0C10 0 0 10 0 40s10 40 40 40 40-10 40-40S70 0 40 0zM28.852 24.152c.655-1.246 1.398-2.665-2.42-4.152-.609 4.018 1.003 4.092 2.42 4.152zm1.201 1.829c1.383-.313 2.955-.674 1.622-4.517-3.483 2.146-2.494 3.409-1.622 4.517zm2.18 3.45c1.757-.397 3.755-.855 2.061-5.74-4.426 2.727-3.169 4.333-2.061 5.74zm2.479 4.156c2.16-.489 4.616-1.052 2.534-7.057-5.442 3.352-3.897 5.326-2.534 7.057zm2.848 4.96c2.54-.576 5.428-1.238 2.98-8.298-6.398 3.941-4.581 6.262-2.98 8.297zm-.54.308c-1.772 1.89-3.795 4.038-8.743-1.592 6.645-3.519 7.765-.8 8.743 1.592zm-2.767-5.005c-1.508 1.608-3.229 3.434-7.437-1.354 5.652-2.993 6.605-.68 7.437 1.354zm-2.393-4.205c-1.227 1.308-2.626 2.794-6.05-1.101 4.598-2.434 5.373-.553 6.05 1.101zm-2.1-3.496c-.965 1.03-2.067 2.198-4.76-.867 3.617-1.916 4.227-.435 4.76.867zm9.754 13.58a1.206 1.206 0 00-1.668-.299 1.18 1.18 0 00-.302 1.653c1.373 1.96 3.122 5.2 3.909 8.493.794 3.325.542 6.366-1.56 8.384a1.18 1.18 0 00-.028 1.679c.461.47 1.22.483 1.695.026a8.408 8.408 0 002.055-3.093c.19 1.175.686 2.291 1.646 3.213a.776.776 0 001.09-.017.76.76 0 00-.017-1.08c-1.352-1.298-1.514-3.254-1.004-5.393.506-2.119 1.631-4.202 2.514-5.463a.76.76 0 00-.194-1.063.775.775 0 00-1.073.192 19.472 19.472 0 00-2.364 4.667 17.558 17.558 0 00-.427-2.599c-.875-3.66-2.781-7.17-4.272-9.3zm8.666 6.67c1.14 1.216 2.44 2.597 5.622-1.024-4.273-2.264-4.993-.514-5.622 1.024zm-.347-.199c-1.632-.37-3.49-.796-1.916-5.337 4.114 2.535 2.946 4.028 1.916 5.337zm2.127-3.02c.97 1.034 2.076 2.209 4.782-.872-3.635-1.925-4.247-.437-4.782.871zm-.295-.17c-1.389-.314-2.968-.677-1.63-4.54 3.5 2.157 2.506 3.427 1.63 4.54zm1.834-2.535c.788.841 1.688 1.797 3.889-.709-2.956-1.565-3.454-.355-3.89.709zm-.24-.137c-1.13-.256-2.415-.551-1.326-3.693 2.846 1.754 2.038 2.787 1.325 3.693zm1.59-2.112c.62.662 1.329 1.414 3.06-.558-2.326-1.232-2.718-.28-3.06.558zm-.19-.108c-.888-.202-1.899-.434-1.042-2.906 2.24 1.38 1.604 2.193 1.043 2.906zm.773-1.177c-.421-.8-.898-1.714 1.556-2.67.392 2.584-.645 2.632-1.556 2.67z" fill="#fff"/></svg>