<svg width="80" height="80" fill="none" xmlns="http://www.w3.org/2000/svg"><path fill-rule="evenodd" clip-rule="evenodd" d="M0 40C0 10 10 0 40 0s40 10 40 40-10 40-40 40S0 70 0 40zm64-19.535c1.42-.056 3.036-.124 2.409-4.212-3.822 1.496-3.072 2.942-2.41 4.212zm-1.288 1.802c-1.388-.325-2.966-.698-1.646-4.6 3.502 2.196 2.515 3.477 1.646 4.6zm-1.998 3.601c-1.763-.412-3.768-.886-2.09-5.845 4.45 2.79 3.195 4.418 2.09 5.845zm-2.468 4.216c-2.168-.507-4.634-1.09-2.57-7.187 5.47 3.431 3.928 5.432 2.57 7.187zm-2.98 4.947c-2.548-.595-5.447-1.28-3.022-8.45 6.432 4.035 4.62 6.387 3.022 8.45zm.543.316c1.785 1.93 3.822 4.121 8.76-1.583-6.677-3.606-7.79-.845-8.76 1.583zm2.898-4.994c1.518 1.641 3.251 3.505 7.452-1.347-5.68-3.067-6.626-.719-7.452 1.347zm2.382-4.266c1.235 1.335 2.645 2.851 6.061-1.096-4.62-2.494-5.389-.584-6.06 1.096zm1.918-3.648c.972 1.05 2.08 2.243 4.769-.862-3.635-1.963-4.24-.46-4.77.862zm-34.1 3.67c-3.689.331-5.963 12.71-4.414 10.39.523-.783.99-1.8 1.45-2.797.9-1.957 1.77-3.845 2.963-3.782 2.419.129 2.453 5.97 2.49 12.35.031 5.602.066 11.62 1.718 14.557C39.486 68.158 61.51 30.502 52.346 38.41c-.631.545-1.497 1.681-2.527 3.035-3.726 4.895-9.607 12.62-14.378 5.4-1.64-2.482-1.975-6.734-2.292-10.745-.423-5.364-.812-10.297-4.243-9.99z" fill="#2D9CDB"/></svg>