<svg width="80" height="80" fill="none" xmlns="http://www.w3.org/2000/svg"><path fill-rule="evenodd" clip-rule="evenodd" d="M40 0C10 0 0 10 0 40s10 40 40 40 40-10 40-40S70 0 40 0zm8.487 24.838c-.363.118-.452.46-.547.83a9.691 9.691 0 01-.042.16c-.238.859.922 1.292 1.88 1.5-2.399 1.09-2.747 3.651-3.15 6.618-.242 1.781-.505 3.71-1.243 5.552-2.148 5.364-6.936 7.41-13.527 7.272-3.591-.076-6.192.82-6.85 2.312-.302-.835-.879-2.018-1.684-1.844-.042.01-.083.018-.125.026-.363.074-.703.143-.798.507-.106.405.54.934.54.934s-.817.128-.923.533c-.106.405.54.934.54.934s-.817.128-.923.533c-.093.354.156.582.424.827.038.036.077.07.115.107.756.717 2.085-.61 2.72-1.34.215 1.035 1.181 2.243 3.091 3.547 5.974 4.081 16.948 1.457 22.368-5.743 5.219-6.932 5.913-21.22 1.164-21.215.615-.727 1.44-1.911.897-2.521l-.082-.094c-.238-.274-.46-.53-.834-.41-.415.135-.59.99-.59.99s-.5-.637-.915-.502c-.416.134-.59.99-.59.99s-.5-.638-.916-.503z" fill="#fff"/></svg>