<svg width="80" height="80" fill="none" xmlns="http://www.w3.org/2000/svg"><path fill-rule="evenodd" clip-rule="evenodd" d="M40 0C10 0 0 10 0 40s10 40 40 40 40-10 40-40S70 0 40 0zm7.198 45.399l7.648-7.648A8.907 8.907 0 0042.25 25.154l-7.648 7.648 12.597 12.597zM40.45 23.354l-7.648 7.648-1.8 1.8-7.648 7.648c-4.472 4.472-4.472 11.723 0 16.196 4.473 4.472 11.724 4.472 16.196 0l7.648-7.648 1.8-1.8 7.648-7.648c4.472-4.472 4.472-11.723 0-16.196-4.473-4.472-11.724-4.472-16.196 0zm11.863 4.212a.954.954 0 001.242-1.45c-.915-.784-2.517-1.659-4.442-1.812-1.971-.157-4.214.45-6.301 2.537a.954.954 0 101.35 1.35c1.691-1.692 3.385-2.097 4.8-1.985 1.46.117 2.692.794 3.351 1.36z" fill="#fff"/></svg>